<mxfile host="app.diagrams.net" agent="Mozilla/5.0 (Windows NT 10.0; Win64; x64) AppleWebKit/537.36 (KHTML, like Gecko) Chrome/133.0.0.0 Safari/537.36" version="26.0.11">
  <diagram name="Page-1" id="OXRp7xQMiuKc_ButsL85">
    <mxGraphModel dx="1114" dy="593" grid="1" gridSize="10" guides="1" tooltips="1" connect="1" arrows="1" fold="1" page="1" pageScale="1" pageWidth="827" pageHeight="1169" math="0" shadow="0">
      <root>
        <mxCell id="0" />
        <mxCell id="1" parent="0" />
        <mxCell id="U0O-_t-eArlXoV90iZhQ-1" value="" style="rounded=0;whiteSpace=wrap;html=1;" vertex="1" parent="1">
          <mxGeometry x="40" y="40" width="760" height="530" as="geometry" />
        </mxCell>
        <mxCell id="U0O-_t-eArlXoV90iZhQ-2" value="&lt;font style=&quot;font-size: 23px;&quot; face=&quot;Comic Sans MS&quot;&gt;&lt;b&gt;Sales dashboard | 2024&lt;/b&gt;&lt;/font&gt;" style="text;html=1;align=center;verticalAlign=middle;resizable=0;points=[];autosize=1;strokeColor=none;fillColor=none;" vertex="1" parent="1">
          <mxGeometry x="140" y="60" width="290" height="40" as="geometry" />
        </mxCell>
        <mxCell id="U0O-_t-eArlXoV90iZhQ-3" value="" style="rounded=0;whiteSpace=wrap;html=1;" vertex="1" parent="1">
          <mxGeometry x="60" y="120" width="230" height="150" as="geometry" />
        </mxCell>
        <mxCell id="U0O-_t-eArlXoV90iZhQ-4" value="&lt;font face=&quot;Comic Sans MS&quot; style=&quot;font-size: 16px;&quot;&gt;&lt;b&gt;Total sales&lt;/b&gt;&lt;/font&gt;" style="text;html=1;align=center;verticalAlign=middle;resizable=0;points=[];autosize=1;strokeColor=none;fillColor=none;" vertex="1" parent="1">
          <mxGeometry x="70" y="130" width="110" height="30" as="geometry" />
        </mxCell>
        <mxCell id="U0O-_t-eArlXoV90iZhQ-5" value="" style="rounded=0;whiteSpace=wrap;html=1;" vertex="1" parent="1">
          <mxGeometry x="310" y="120" width="220" height="150" as="geometry" />
        </mxCell>
        <mxCell id="U0O-_t-eArlXoV90iZhQ-6" value="" style="rounded=0;whiteSpace=wrap;html=1;" vertex="1" parent="1">
          <mxGeometry x="550" y="120" width="220" height="150" as="geometry" />
        </mxCell>
        <mxCell id="U0O-_t-eArlXoV90iZhQ-7" value="&lt;font face=&quot;Comic Sans MS&quot; style=&quot;font-size: 16px;&quot;&gt;&lt;b&gt;Total profit&lt;/b&gt;&lt;/font&gt;" style="text;html=1;align=center;verticalAlign=middle;resizable=0;points=[];autosize=1;strokeColor=none;fillColor=none;" vertex="1" parent="1">
          <mxGeometry x="315" y="130" width="120" height="30" as="geometry" />
        </mxCell>
        <mxCell id="U0O-_t-eArlXoV90iZhQ-8" value="&lt;font face=&quot;Comic Sans MS&quot; style=&quot;font-size: 16px;&quot;&gt;&lt;b&gt;Total quantity&lt;/b&gt;&lt;/font&gt;" style="text;html=1;align=center;verticalAlign=middle;resizable=0;points=[];autosize=1;strokeColor=none;fillColor=none;" vertex="1" parent="1">
          <mxGeometry x="550" y="130" width="130" height="30" as="geometry" />
        </mxCell>
        <mxCell id="U0O-_t-eArlXoV90iZhQ-11" value="" style="verticalLabelPosition=bottom;shadow=0;dashed=0;align=center;html=1;verticalAlign=top;strokeWidth=1;shape=mxgraph.mockup.graphics.lineChart;strokeColor=none;strokeColor2=#666666;strokeColor3=#008cff;strokeColor4=#dddddd;" vertex="1" parent="1">
          <mxGeometry x="160" y="180" width="120" height="80" as="geometry" />
        </mxCell>
        <mxCell id="U0O-_t-eArlXoV90iZhQ-12" value="" style="verticalLabelPosition=bottom;shadow=0;dashed=0;align=center;html=1;verticalAlign=top;strokeWidth=1;shape=mxgraph.mockup.graphics.lineChart;strokeColor=none;strokeColor2=#666666;strokeColor3=#008cff;strokeColor4=#dddddd;" vertex="1" parent="1">
          <mxGeometry x="400" y="180" width="120" height="80" as="geometry" />
        </mxCell>
        <mxCell id="U0O-_t-eArlXoV90iZhQ-13" value="" style="verticalLabelPosition=bottom;shadow=0;dashed=0;align=center;html=1;verticalAlign=top;strokeWidth=1;shape=mxgraph.mockup.graphics.lineChart;strokeColor=none;strokeColor2=#666666;strokeColor3=#008cff;strokeColor4=#dddddd;" vertex="1" parent="1">
          <mxGeometry x="642" y="180" width="120" height="80" as="geometry" />
        </mxCell>
        <mxCell id="U0O-_t-eArlXoV90iZhQ-14" value="&lt;font face=&quot;Comic Sans MS&quot;&gt;&lt;b&gt;$100K&lt;/b&gt;&lt;/font&gt;&lt;div&gt;&lt;font face=&quot;Comic Sans MS&quot;&gt;&lt;b&gt;*10% vs py&lt;/b&gt;&lt;/font&gt;&lt;/div&gt;" style="text;html=1;align=left;verticalAlign=middle;resizable=0;points=[];autosize=1;strokeColor=none;fillColor=none;" vertex="1" parent="1">
          <mxGeometry x="70" y="180" width="90" height="40" as="geometry" />
        </mxCell>
        <mxCell id="U0O-_t-eArlXoV90iZhQ-15" value="&lt;font face=&quot;Comic Sans MS&quot;&gt;&lt;b&gt;$40K&lt;/b&gt;&lt;/font&gt;&lt;div&gt;&lt;font face=&quot;Comic Sans MS&quot;&gt;&lt;b&gt;*10% vs py&lt;/b&gt;&lt;/font&gt;&lt;/div&gt;" style="text;html=1;align=left;verticalAlign=middle;resizable=0;points=[];autosize=1;strokeColor=none;fillColor=none;" vertex="1" parent="1">
          <mxGeometry x="316" y="180" width="90" height="40" as="geometry" />
        </mxCell>
        <mxCell id="U0O-_t-eArlXoV90iZhQ-16" value="&lt;font face=&quot;Comic Sans MS&quot;&gt;&lt;b&gt;$10K&lt;/b&gt;&lt;/font&gt;&lt;div&gt;&lt;font face=&quot;Comic Sans MS&quot;&gt;&lt;b&gt;*10% vs py&lt;/b&gt;&lt;/font&gt;&lt;/div&gt;" style="text;html=1;align=left;verticalAlign=middle;resizable=0;points=[];autosize=1;strokeColor=none;fillColor=none;" vertex="1" parent="1">
          <mxGeometry x="553" y="180" width="90" height="40" as="geometry" />
        </mxCell>
        <mxCell id="U0O-_t-eArlXoV90iZhQ-17" value="" style="rounded=0;whiteSpace=wrap;html=1;" vertex="1" parent="1">
          <mxGeometry x="60" y="290" width="370" height="250" as="geometry" />
        </mxCell>
        <mxCell id="U0O-_t-eArlXoV90iZhQ-18" value="&lt;font style=&quot;font-size: 16px;&quot; face=&quot;Comic Sans MS&quot;&gt;&lt;b&gt;Sales &amp;amp; profit by sub-catagory&lt;/b&gt;&lt;/font&gt;" style="text;html=1;align=center;verticalAlign=middle;resizable=0;points=[];autosize=1;strokeColor=none;fillColor=none;" vertex="1" parent="1">
          <mxGeometry x="70" y="305" width="270" height="30" as="geometry" />
        </mxCell>
        <mxCell id="U0O-_t-eArlXoV90iZhQ-19" value="" style="shape=image;html=1;verticalAlign=top;verticalLabelPosition=bottom;labelBackgroundColor=#ffffff;imageAspect=0;aspect=fixed;image=https://cdn1.iconfinder.com/data/icons/unicons-line-vol-2/24/chart-bar-alt-128.png" vertex="1" parent="1">
          <mxGeometry x="80" y="370" width="130" height="130" as="geometry" />
        </mxCell>
        <mxCell id="U0O-_t-eArlXoV90iZhQ-21" value="" style="verticalLabelPosition=bottom;shadow=0;dashed=0;align=center;html=1;verticalAlign=top;strokeWidth=1;shape=mxgraph.mockup.graphics.barChart;strokeColor=none;strokeColor2=none;strokeColor3=#666666;fillColor2=#008cff;fillColor3=#dddddd;" vertex="1" parent="1">
          <mxGeometry x="234" y="370" width="180" height="130" as="geometry" />
        </mxCell>
        <mxCell id="U0O-_t-eArlXoV90iZhQ-22" value="" style="rounded=0;whiteSpace=wrap;html=1;" vertex="1" parent="1">
          <mxGeometry x="450" y="290" width="320" height="250" as="geometry" />
        </mxCell>
        <mxCell id="U0O-_t-eArlXoV90iZhQ-23" value="&lt;font style=&quot;font-size: 16px;&quot; face=&quot;Comic Sans MS&quot;&gt;&lt;b&gt;Trends over the years&lt;/b&gt;&lt;/font&gt;" style="text;html=1;align=center;verticalAlign=middle;resizable=0;points=[];autosize=1;strokeColor=none;fillColor=none;" vertex="1" parent="1">
          <mxGeometry x="460" y="305" width="200" height="30" as="geometry" />
        </mxCell>
        <mxCell id="U0O-_t-eArlXoV90iZhQ-24" value="" style="shape=image;html=1;verticalAlign=top;verticalLabelPosition=bottom;labelBackgroundColor=#ffffff;imageAspect=0;aspect=fixed;image=https://cdn1.iconfinder.com/data/icons/unicons-line-vol-2/24/chart-line-128.png" vertex="1" parent="1">
          <mxGeometry x="650" y="335" width="85" height="85" as="geometry" />
        </mxCell>
        <mxCell id="U0O-_t-eArlXoV90iZhQ-25" value="" style="shape=image;html=1;verticalAlign=top;verticalLabelPosition=bottom;labelBackgroundColor=#ffffff;imageAspect=0;aspect=fixed;image=https://cdn1.iconfinder.com/data/icons/unicons-line-vol-2/24/chart-line-128.png" vertex="1" parent="1">
          <mxGeometry x="650" y="430" width="85" height="85" as="geometry" />
        </mxCell>
        <mxCell id="U0O-_t-eArlXoV90iZhQ-26" value="&lt;font face=&quot;Comic Sans MS&quot; style=&quot;font-size: 16px;&quot;&gt;&lt;b&gt;Profit&lt;/b&gt;&lt;/font&gt;" style="text;html=1;align=center;verticalAlign=middle;resizable=0;points=[];autosize=1;strokeColor=none;fillColor=none;" vertex="1" parent="1">
          <mxGeometry x="550" y="362.5" width="70" height="30" as="geometry" />
        </mxCell>
        <mxCell id="U0O-_t-eArlXoV90iZhQ-27" value="&lt;font style=&quot;font-size: 16px;&quot; face=&quot;Comic Sans MS&quot;&gt;&lt;b style=&quot;&quot;&gt;Sales&lt;/b&gt;&lt;/font&gt;" style="text;html=1;align=center;verticalAlign=middle;resizable=0;points=[];autosize=1;strokeColor=none;fillColor=none;" vertex="1" parent="1">
          <mxGeometry x="560" y="450" width="60" height="30" as="geometry" />
        </mxCell>
        <mxCell id="U0O-_t-eArlXoV90iZhQ-28" value="" style="html=1;strokeWidth=2;outlineConnect=0;dashed=0;align=center;fontSize=8;fillColor=#c0f5a9;verticalLabelPosition=bottom;verticalAlign=top;shape=mxgraph.eip.message_filter;" vertex="1" parent="1">
          <mxGeometry x="690" y="50" width="80" height="60" as="geometry" />
        </mxCell>
        <mxCell id="U0O-_t-eArlXoV90iZhQ-29" value="" style="ellipse;whiteSpace=wrap;html=1;" vertex="1" parent="1">
          <mxGeometry x="50" y="50" width="90" height="60" as="geometry" />
        </mxCell>
        <mxCell id="U0O-_t-eArlXoV90iZhQ-30" value="&lt;font style=&quot;font-size: 15px;&quot; face=&quot;Comic Sans MS&quot;&gt;&lt;b&gt;Logo&lt;/b&gt;&lt;/font&gt;" style="text;html=1;align=center;verticalAlign=middle;resizable=0;points=[];autosize=1;strokeColor=none;fillColor=none;" vertex="1" parent="1">
          <mxGeometry x="60" y="65" width="60" height="30" as="geometry" />
        </mxCell>
        <mxCell id="U0O-_t-eArlXoV90iZhQ-31" value="" style="verticalLabelPosition=bottom;aspect=fixed;html=1;shape=mxgraph.salesforce.sales;" vertex="1" parent="1">
          <mxGeometry x="530" y="50" width="60" height="60" as="geometry" />
        </mxCell>
        <mxCell id="U0O-_t-eArlXoV90iZhQ-32" value="" style="verticalLabelPosition=bottom;aspect=fixed;html=1;shape=mxgraph.salesforce.customer_360;" vertex="1" parent="1">
          <mxGeometry x="610" y="53" width="62.64" height="57" as="geometry" />
        </mxCell>
      </root>
    </mxGraphModel>
  </diagram>
</mxfile>
